<svg viewBox="0 0 820 480" xmlns="http://www.w3.org/2000/svg" font-family="'SF Mono','Fira Code',monospace" font-size="12">
  <defs>
    <filter id="glow"><feGaussianBlur stdDeviation="2" result="blur"/><feMerge><feMergeNode in="blur"/><feMergeNode in="SourceGraphic"/></feMerge></filter>
    <clipPath id="clip-url1"><rect x="530" y="128" width="190" height="20"/></clipPath>
    <clipPath id="clip-url2"><rect x="530" y="154" width="190" height="20"/></clipPath>
    <clipPath id="clip-url3"><rect x="530" y="180" width="190" height="20"/></clipPath>
    <clipPath id="clip-main"><rect x="0" y="0" width="820" height="480" rx="10"/></clipPath>
  </defs>

  <!-- Card background -->
  <rect width="820" height="480" fill="#0f1117" rx="10"/>
  <rect width="820" height="480" fill="none" stroke="#2a2d3e" stroke-width="1" rx="10"/>

  <!-- ── Header ── -->
  <rect width="820" height="46" fill="#1a1d27" rx="10"/>
  <rect y="36" width="820" height="10" fill="#1a1d27"/>
  <rect y="46" width="820" height="1" fill="#2a2d3e"/>
  <text x="20" y="29" fill="#e2e8f0" font-size="14" font-weight="600" letter-spacing="0.8">⬡ Porthole</text>
  <rect x="115" y="14" width="52" height="18" rx="9" fill="#14532d" stroke="#22c55e" stroke-width="0.8"/>
  <text x="141" y="27" fill="#4ade80" font-size="10" font-weight="600" text-anchor="middle" letter-spacing="0.3">HTTPS</text>
  <text x="800" y="29" fill="#64748b" font-size="11" text-anchor="end">164.92.100.42</text>

  <!-- ── Left panel ── -->
  <rect x="0" y="47" width="268" height="433" fill="#0f1117"/>
  <rect x="268" y="47" width="1" height="433" fill="#2a2d3e"/>
  <text x="18" y="74" fill="#64748b" font-size="10" letter-spacing="1.5" font-weight="500">CONFIG</text>

  <!-- Config rows -->
  <rect x="0" y="82" width="268" height="1" fill="#2a2d3e"/>
  <text x="18" y="100" fill="#64748b">VPS</text>
  <text x="252" y="100" fill="#e2e8f0" text-anchor="end" font-weight="500">164.92.100.42</text>

  <rect x="0" y="108" width="268" height="1" fill="#2a2d3e"/>
  <text x="18" y="126" fill="#64748b">Domain</text>
  <text x="252" y="126" fill="#e2e8f0" text-anchor="end" font-weight="500" font-size="11">myserver.duckdns.org</text>

  <rect x="0" y="134" width="268" height="1" fill="#2a2d3e"/>
  <text x="18" y="152" fill="#64748b">Email</text>
  <text x="252" y="152" fill="#e2e8f0" text-anchor="end" font-weight="500" font-size="11">you@example.com</text>

  <rect x="0" y="160" width="268" height="1" fill="#2a2d3e"/>
  <text x="18" y="178" fill="#64748b">SSH Key</text>
  <text x="252" y="178" fill="#22c55e" text-anchor="end" font-weight="500">✓ found</text>

  <rect x="0" y="186" width="268" height="1" fill="#2a2d3e"/>
  <text x="18" y="204" fill="#64748b">FRP Token</text>
  <text x="252" y="204" fill="#e2e8f0" text-anchor="end">••••••••</text>

  <rect x="0" y="212" width="268" height="1" fill="#2a2d3e"/>
  <text x="18" y="230" fill="#64748b">DuckDNS</text>
  <text x="252" y="230" fill="#e2e8f0" text-anchor="end">••••••••</text>

  <!-- ── Right panel ── -->
  <rect x="269" y="47" width="551" height="433" fill="#0f1117"/>

  <!-- Services bar -->
  <rect x="269" y="47" width="551" height="42" fill="#161820"/>
  <rect x="269" y="89" width="551" height="1" fill="#2a2d3e"/>
  <text x="286" y="72" fill="#64748b" font-size="10" letter-spacing="1.5" font-weight="500">SERVICES</text>
  <rect x="728" y="57" width="78" height="22" rx="5" fill="#1a1d27" stroke="#2a2d3e" stroke-width="0.8"/>
  <text x="767" y="72" fill="#e2e8f0" font-size="11" text-anchor="middle">+ Add</text>

  <!-- Table header -->
  <rect x="269" y="90" width="551" height="28" fill="#13151f"/>
  <rect x="269" y="118" width="551" height="1" fill="#2a2d3e"/>
  <text x="286" y="108" fill="#64748b" font-size="10" letter-spacing="1" font-weight="500">NAME</text>
  <text x="420" y="108" fill="#64748b" font-size="10" letter-spacing="1" font-weight="500">LOCAL</text>
  <text x="548" y="108" fill="#64748b" font-size="10" letter-spacing="1" font-weight="500">URL</text>

  <!-- Row 1: ollama UP -->
  <rect x="269" y="118" width="551" height="34" fill="#0f1117"/>
  <rect x="269" y="152" width="551" height="1" fill="#2a2d3e"/>
  <circle cx="288" cy="135" r="4" fill="#22c55e" filter="url(#glow)"/>
  <text x="300" y="139" fill="#e2e8f0">ollama</text>
  <rect x="408" y="124" width="112" height="20" rx="4" fill="#161820" stroke="#2a2d3e" stroke-width="0.8"/>
  <text x="464" y="138" fill="#64748b" text-anchor="middle" font-size="11">localhost:11434</text>
  <text x="548" y="139" fill="#6366f1" font-size="11" clip-path="url(#clip-url1)">https://myserver.duckdns.org/ollama/</text>
  <rect x="732" y="124" width="76" height="20" rx="4" fill="#0f1117" stroke="#ef4444" stroke-width="0.8"/>
  <text x="770" y="138" fill="#ef4444" font-size="11" text-anchor="middle">Remove</text>

  <!-- Row 2: ktor UP -->
  <rect x="269" y="153" width="551" height="34" fill="#0f1117"/>
  <rect x="269" y="187" width="551" height="1" fill="#2a2d3e"/>
  <circle cx="288" cy="170" r="4" fill="#22c55e" filter="url(#glow)"/>
  <text x="300" y="174" fill="#e2e8f0">ktor</text>
  <rect x="408" y="159" width="112" height="20" rx="4" fill="#161820" stroke="#2a2d3e" stroke-width="0.8"/>
  <text x="464" y="173" fill="#64748b" text-anchor="middle" font-size="11">localhost:8080</text>
  <text x="548" y="174" fill="#6366f1" font-size="11" clip-path="url(#clip-url2)">https://myserver.duckdns.org/ktor/</text>
  <rect x="732" y="159" width="76" height="20" rx="4" fill="#0f1117" stroke="#ef4444" stroke-width="0.8"/>
  <text x="770" y="173" fill="#ef4444" font-size="11" text-anchor="middle">Remove</text>

  <!-- Row 3: fastapi DOWN -->
  <rect x="269" y="188" width="551" height="34" fill="#0f1117"/>
  <rect x="269" y="222" width="551" height="1" fill="#2a2d3e"/>
  <circle cx="288" cy="205" r="4" fill="#ef4444"/>
  <text x="300" y="209" fill="#e2e8f0">fastapi</text>
  <rect x="408" y="194" width="112" height="20" rx="4" fill="#161820" stroke="#2a2d3e" stroke-width="0.8"/>
  <text x="464" y="208" fill="#64748b" text-anchor="middle" font-size="11">localhost:8000</text>
  <text x="548" y="209" fill="#6366f1" font-size="11" clip-path="url(#clip-url3)">https://myserver.duckdns.org/fastapi/</text>
  <rect x="732" y="194" width="76" height="20" rx="4" fill="#0f1117" stroke="#ef4444" stroke-width="0.8"/>
  <text x="770" y="208" fill="#ef4444" font-size="11" text-anchor="middle">Remove</text>

  <!-- Output log -->
  <rect x="269" y="350" width="551" height="1" fill="#2a2d3e"/>
  <rect x="269" y="351" width="551" height="90" fill="#0a0c12"/>
  <text x="286" y="371" fill="#22c55e" font-size="11">✓  local/frpc.ini</text>
  <text x="286" y="387" fill="#22c55e" font-size="11">✓  vps/docker-compose.yml</text>
  <text x="286" y="403" fill="#22c55e" font-size="11">✓  VPS frps restarted</text>
  <text x="286" y="419" fill="#22c55e" font-size="11">✓  Nginx config updated</text>
  <text x="286" y="435" fill="#22c55e" font-size="11">✓  firewall synced (22, 7000, 7500, 8000, 8080, 11434)</text>

  <!-- Action bar -->
  <rect x="269" y="441" width="551" height="1" fill="#2a2d3e"/>
  <rect x="269" y="442" width="551" height="38" fill="#1a1d27"/>
  <rect x="286" y="451" width="66" height="22" rx="6" fill="#6366f1"/>
  <text x="319" y="466" fill="#ffffff" font-size="12" text-anchor="middle" font-weight="500">⟳ Sync</text>
  <rect x="360" y="451" width="72" height="22" rx="6" fill="#1a1d27" stroke="#2a2d3e" stroke-width="0.8"/>
  <text x="396" y="466" fill="#e2e8f0" font-size="12" text-anchor="middle">◎ Status</text>
  <text x="806" y="466" fill="#64748b" font-size="11" text-anchor="end">synced 10:24 PM</text>

  <!-- ── Mobile callout ── -->
  <rect x="440" y="240" width="360" height="100" rx="8" fill="#1a1d27" stroke="#2a2d3e" stroke-width="1"/>
  <text x="456" y="260" fill="#64748b" font-size="10" letter-spacing="1" font-weight="500">COMPACT MODE  (&lt; 680px)</text>
  <rect x="456" y="270" width="327" height="1" fill="#2a2d3e"/>
  <!-- mini mobile mockup rows -->
  <circle cx="466" cy="287" r="3" fill="#22c55e" filter="url(#glow)"/>
  <text x="476" y="291" fill="#e2e8f0" font-size="11">ollama</text>
  <text x="600" y="291" fill="#6366f1" font-size="11">.../ollama/</text>
  <rect x="718" y="281" width="54" height="16" rx="3" fill="#0f1117" stroke="#ef4444" stroke-width="0.8"/>
  <text x="745" y="292" fill="#ef4444" font-size="10" text-anchor="middle">Remove</text>

  <rect x="456" y="297" width="327" height="1" fill="#2a2d3e"/>
  <circle cx="466" cy="311" r="3" fill="#22c55e" filter="url(#glow)"/>
  <text x="476" y="315" fill="#e2e8f0" font-size="11">ktor</text>
  <text x="600" y="315" fill="#6366f1" font-size="11">.../ktor/</text>
  <rect x="718" y="305" width="54" height="16" rx="3" fill="#0f1117" stroke="#ef4444" stroke-width="0.8"/>
  <text x="745" y="316" fill="#ef4444" font-size="10" text-anchor="middle">Remove</text>

  <rect x="456" y="323" width="327" height="1" fill="#2a2d3e"/>
  <text x="456" y="333" fill="#64748b" font-size="10">Local column hidden · buttons wrap · panels stack vertically</text>
</svg>
